<mxfile host="app.diagrams.net" agent="Mozilla/5.0 (Windows NT 10.0; Win64; x64) AppleWebKit/537.36 (KHTML, like Gecko) Chrome/136.0.0.0 Safari/537.36 Edg/136.0.0.0" version="27.1.3">
  <diagram name="第 1 页" id="EZfwvrV0UWdc51QpW9PY">
    <mxGraphModel dx="639" dy="469" grid="1" gridSize="10" guides="1" tooltips="1" connect="1" arrows="1" fold="1" page="1" pageScale="1" pageWidth="413" pageHeight="583" math="0" shadow="0">
      <root>
        <mxCell id="0" />
        <mxCell id="1" parent="0" />
        <mxCell id="K94DNqU-dKxr6x8PIKlG-4" value="" style="edgeStyle=orthogonalEdgeStyle;rounded=0;orthogonalLoop=1;jettySize=auto;html=1;" edge="1" parent="1" source="K94DNqU-dKxr6x8PIKlG-2" target="K94DNqU-dKxr6x8PIKlG-3">
          <mxGeometry relative="1" as="geometry" />
        </mxCell>
        <mxCell id="K94DNqU-dKxr6x8PIKlG-2" value="main" style="ellipse;whiteSpace=wrap;html=1;fillColor=#f5f5f5;strokeColor=#666666;fontColor=#333333;" vertex="1" parent="1">
          <mxGeometry x="110" y="100" width="120" height="50" as="geometry" />
        </mxCell>
        <mxCell id="K94DNqU-dKxr6x8PIKlG-14" value="" style="edgeStyle=orthogonalEdgeStyle;rounded=0;orthogonalLoop=1;jettySize=auto;html=1;" edge="1" parent="1" source="K94DNqU-dKxr6x8PIKlG-3" target="K94DNqU-dKxr6x8PIKlG-5">
          <mxGeometry relative="1" as="geometry" />
        </mxCell>
        <mxCell id="K94DNqU-dKxr6x8PIKlG-3" value="初始化I2C黑名单列表" style="whiteSpace=wrap;html=1;fillColor=#dae8fc;strokeColor=#6c8ebf;" vertex="1" parent="1">
          <mxGeometry x="110" y="190" width="120" height="60" as="geometry" />
        </mxCell>
        <mxCell id="K94DNqU-dKxr6x8PIKlG-15" value="" style="edgeStyle=orthogonalEdgeStyle;rounded=0;orthogonalLoop=1;jettySize=auto;html=1;" edge="1" parent="1" source="K94DNqU-dKxr6x8PIKlG-5" target="K94DNqU-dKxr6x8PIKlG-9">
          <mxGeometry relative="1" as="geometry" />
        </mxCell>
        <mxCell id="K94DNqU-dKxr6x8PIKlG-5" value="解析Fru配置文件" style="whiteSpace=wrap;html=1;fillColor=#d5e8d4;strokeColor=#82b366;" vertex="1" parent="1">
          <mxGeometry x="110" y="291.5" width="120" height="58.5" as="geometry" />
        </mxCell>
        <mxCell id="K94DNqU-dKxr6x8PIKlG-17" style="edgeStyle=orthogonalEdgeStyle;rounded=0;orthogonalLoop=1;jettySize=auto;html=1;entryX=0;entryY=0.5;entryDx=0;entryDy=0;" edge="1" parent="1" source="K94DNqU-dKxr6x8PIKlG-9" target="K94DNqU-dKxr6x8PIKlG-10">
          <mxGeometry relative="1" as="geometry" />
        </mxCell>
        <mxCell id="K94DNqU-dKxr6x8PIKlG-9" value="注册Dbus接口、方法、属性" style="whiteSpace=wrap;html=1;fillColor=#ffe6cc;strokeColor=#d79b00;" vertex="1" parent="1">
          <mxGeometry x="110" y="390" width="120" height="60" as="geometry" />
        </mxCell>
        <mxCell id="K94DNqU-dKxr6x8PIKlG-20" value="" style="edgeStyle=orthogonalEdgeStyle;rounded=0;orthogonalLoop=1;jettySize=auto;html=1;" edge="1" parent="1" source="K94DNqU-dKxr6x8PIKlG-10" target="K94DNqU-dKxr6x8PIKlG-11">
          <mxGeometry relative="1" as="geometry" />
        </mxCell>
        <mxCell id="K94DNqU-dKxr6x8PIKlG-10" value="监控主机上电状态变化" style="whiteSpace=wrap;html=1;fillColor=#f8cecc;strokeColor=#b85450;" vertex="1" parent="1">
          <mxGeometry x="280" y="100" width="120" height="60" as="geometry" />
        </mxCell>
        <mxCell id="K94DNqU-dKxr6x8PIKlG-19" value="" style="edgeStyle=orthogonalEdgeStyle;rounded=0;orthogonalLoop=1;jettySize=auto;html=1;" edge="1" parent="1" source="K94DNqU-dKxr6x8PIKlG-11" target="K94DNqU-dKxr6x8PIKlG-12">
          <mxGeometry relative="1" as="geometry" />
        </mxCell>
        <mxCell id="K94DNqU-dKxr6x8PIKlG-11" value="监控/dev目录下i2c字符设备的变化" style="whiteSpace=wrap;html=1;fillColor=#e1d5e7;strokeColor=#9673a6;" vertex="1" parent="1">
          <mxGeometry x="280" y="200" width="120" height="60" as="geometry" />
        </mxCell>
        <mxCell id="K94DNqU-dKxr6x8PIKlG-18" value="" style="edgeStyle=orthogonalEdgeStyle;rounded=0;orthogonalLoop=1;jettySize=auto;html=1;" edge="1" parent="1" source="K94DNqU-dKxr6x8PIKlG-12" target="K94DNqU-dKxr6x8PIKlG-13">
          <mxGeometry relative="1" as="geometry" />
        </mxCell>
        <mxCell id="K94DNqU-dKxr6x8PIKlG-12" value="初始化Fru信息" style="whiteSpace=wrap;html=1;fillColor=#60a917;strokeColor=#2D7600;fontColor=#ffffff;" vertex="1" parent="1">
          <mxGeometry x="280" y="300" width="120" height="60" as="geometry" />
        </mxCell>
        <mxCell id="K94DNqU-dKxr6x8PIKlG-13" value="io.run()" style="ellipse;whiteSpace=wrap;html=1;fillColor=#a0522d;strokeColor=#6D1F00;fontColor=#ffffff;" vertex="1" parent="1">
          <mxGeometry x="280" y="400" width="120" height="50" as="geometry" />
        </mxCell>
      </root>
    </mxGraphModel>
  </diagram>
</mxfile>
